<svg viewBox="0 0 150 150" xmlns="http://www.w3.org/2000/svg"><defs><clipPath clipPathUnits="userSpaceOnUse" id="a"><path d="M439.25019 386.54384v240.00034l-333.00037-.006-41.999938-41.99382-.000058-198.00033z" fill="none" stroke="#000" stroke-width=".264583"/></clipPath><clipPath clipPathUnits="userSpaceOnUse" id="b"><path d="M439.25019 386.54384v240.00034l-333.00037-.006-41.999938-41.99382-.000058-198.00033z" fill="none" stroke="#000" stroke-width=".264583"/></clipPath></defs><g transform="matrix(.3 0 0 .3 .00000337 0)"><path d="M249.99972789 249.99974272.00000482 499.9999804h499.99996472Z" fill="#4aa41d"/><path d="M249.9997279 249.99974 499.99997 499.99995V.00001Z" fill="#d3d335"/><path d="M.00001 0v499.99995l249.9997179-250.00021Z" fill="#fb4b4b"/><path d="m.00001.00001 249.9997179 249.99973L499.99997.00001Z" fill="#4985e7"/><circle cx="250" cy="51.956322" r="18" fill="#d2d235" stroke="#29292f" stroke-width="1.75"/><circle cx="179" cy="51.956322" r="18" fill="#fa4a4b" stroke="#29292f" stroke-width="1.75"/><circle cx="321" cy="51.956322" r="18" fill="#48a11c" stroke="#29292f" stroke-width="1.75"/><g transform="translate(7.4999952 -385.27827)" fill="#26282c"><path d="M140 790h142v23.5H140z"/><circle cx="139.25" cy="801.75" r="11.75"/><circle cx="282" cy="801.75" r="11.75"/></g><circle cx="181.87294" cy="415.01883" r="23.4375" fill="#474a52" stroke="#26282c" stroke-width="3.25"/><path d="M338.36669 386.05068v24.61967h-24.61966v15.26659h24.61966v24.61967h15.26603v-24.61967h24.62023v-15.26659h-24.62023v-24.61967z" fill="#474a52" stroke="#26282c" stroke-width="3.494"/><path d="M64.249823 386.54384v240.00033h48.174327l-48.065805-48.06579 48.065805 48.06579h326.82604V386.54384Z" clip-path="url(#a)" transform="translate(-.00000482 -263.04368)" fill="#fff"/><path d="M64.249823 386.54384v240.00033h48.174327l-48.065805-48.06579 48.065805 48.06579h326.82604V386.54384Z" clip-path="url(#b)" transform="matrix(.77333 0 0 .7452 57.063511 -133.9753)" fill="#474a52"/><path d="m64.249876 321.50067 41.999944 41.99382 333.00036.006V123.50016H64.249818l.000058 198.00051" fill="none" stroke="#26282c" stroke-width="5"/><path d="m106.75 154.07657.00005 147.54947 32.47992 31.2937 257.52004.005v-178.8483l-290.00001.00013" fill="none" stroke="#26282c" stroke-width="4.75"/><path d="m353.90674 276.43821-12.87422 22.79809 8.58281.13412 9.11924-18.10438 9.25335 17.83617 6.57121.26821-12.4719-22.26167 11.93548-22.664h-6.83943l-8.98514 16.89743-8.71692-16.76331-7.24174.13409zm-44.27338-21.9903-.13411 44.78879 28.16236.27097.00024-6.16889h-21.9937l.1657-14.72008 18.709.10248.0343-5.49838-18.90901.1369.1657-13.81576h21.828V254.582Z" fill="#fff" stroke="#26282c" stroke-width="1.5"/><g transform="translate(-2.1166715 -263.04368)"><path d="M201.59363072 442.02624892c-5.92316237-.0049986-8.16795327.11539797-8.5069034.45406395-.36686015.36643827-.27224011.45955242.46511019.45955242 3.2772313 0 13.71051548 3.03497744 19.10205764 5.55646743 14.34023573 6.70660813 23.0007992 17.03809993 26.90700076 32.09859888.7508103 2.89477636.84640034 4.14148026.84640034 11.03971519 0 6.23670858-.13542006 8.36269837-.68328028 10.73857878-2.91019116 12.62039637-9.18380367 22.86465239-18.11424724 29.57917832-4.40338176 3.31075088-8.95280358 5.32202252-15.4907262 6.84840877-3.0028912.70113535 9.7547039.0777784 14.63119585-.71483155 17.44865698-2.8362726 29.66616187-10.69146187 36.4688946-23.44714068 1.42009056-2.66281076 3.48171139-8.66747376 4.31633172-12.57133998.78535031-3.67353017 1.2523505-11.70910935.93022037-16.01046522-.22078009-2.94811156-.45390018-3.7429309-2.13215085-7.27675985-7.7518131-16.32267855-22.40317896-28.99954923-39.42321577-34.10998049-7.478043-2.24536665-10.34316414-2.63719787-19.31668773-2.64404597zm-23.4931294 4.24628116-4.43247177 2.18596314c-4.11211164 2.02781705-10.47053419 6.14390435-13.5075454 8.74378258-.71005029.60787125-2.66654107 2.50001595-4.34764174 4.20443278-9.93055397 10.06814491-16.19454648 23.05022086-17.89052716 37.0784064-.47427019 3.92284095-.57450023 11.87074448-.17019006 13.47993774.22524009.89652111.38088015.579949 1.09991044-2.236899 4.72823189-18.52331761 14.95520598-32.28890605 28.86949154-38.85874215 3.96222159-1.87086062 5.55250222-2.43053524 10.04012402-3.5339689 2.83397113-.69683656 4.36825175-.82180186 10.19364408-.82180186 5.81127232-.00096973 7.42362297.12742462 10.56484422.84298597 10.21005409 2.32582431 17.77217711 6.40936065 24.66929987 13.32203158 6.89252276 6.9080722 10.37355415 14.0708037 11.08298443 22.80541882l.2403801 2.9623676.30806012-4.0404583c.4764802-6.24912514.05140002-16.4384564-.85096034-20.3989969-2.2380209-9.82315292-5.71851228-16.5616422-11.57888463-22.41595694-8.67530347-8.66633408-22.32209893-13.31850256-39.06970563-13.31850256zm13.03435522 27.35692526c-4.44906178-.01609554-9.15475366.23496477-11.89049476.73250664-7.38791295 1.34361699-13.38733535 3.74067153-18.65058746 7.45180125-11.7449647 8.28140094-17.82100713 21.9863962-18.81772752 42.44366692l-.2545201 5.22093058 1.48928059 3.37052428c6.36582255 14.41076933 19.2723877 27.07608322 33.45346338 32.8275865 1.32520053.5374608 2.7430211 1.1242179 3.15076126 1.30409796 2.7416411 1.20937426 7.81071312 2.47984156 13.34442534 3.34426158 3.5090214.54813783 15.4969662.9804778 13.34492534.4812664-4.15265166-.9632526-11.60276464-3.7447604-16.2578265-6.07001487-8.56081343-4.27618286-14.77261592-9.47843862-20.01612801-16.7626364-8.96670359-12.4563619-10.86520435-28.68155751-5.16221207-44.1190618 6.06910243-16.42860914 19.58811784-27.65096362 34.85081394-28.93091828l3.2492513-.27293423-2.96544118-.48835443c-2.10227085-.34623388-5.40760217-.52022557-8.86798355-.5327221zm11.54506462 14.85769525c-8.09194324 0-15.20098608 5.41927551-17.37289695 13.24384328-1.69641068 6.11141337.10863004 12.62408534 4.78296191 17.25653929 1.9999208 1.98199976 5.69075228 4.13873102 8.04837322 4.70335427 2.44034098.58441775 7.56188302.3688476 9.89619396-.41671431 12.64756506-4.2562384 16.4970966-19.9595089 7.21005288-29.41270454-3.48100139-3.54326633-7.7622331-5.374318-12.56468502-5.374318zm63.67486547 13.90271037-1.59584064 4.84107603c-1.85052074 5.6131517-4.80816192 11.91072338-7.60901305 16.20164215-1.92989077 2.9565992-6.93291277 9.13894287-8.2796633 10.23104969-.37671016.30548519-1.60093065 1.31997355-2.7205011 2.25456409-9.2460437 7.71831726-21.62956865 11.57430678-33.41861336 10.4060711-11.18679448-1.10853226-20.59295824-4.91282612-28.4725314-11.51596298-1.99016079-1.667767-2.37169094-2.03996367-5.15869206-5.0327828-5.35205214-5.74732445-9.12235364-14.86999185-9.33564373-22.58846906l-.07120003-2.5920804-.29744012 1.851476c-.60990024 3.80008503-.81785032 13.65545901-.37524015 17.77465545 2.66548107 24.80628336 18.06419723 38.8193331 46.18026847 42.02494316 1.42713058.16267484 4.34617174.26792562 6.4868726.23355516 3.68708147-.0590836 4.05811162-.13951127 7.04288282-1.52052787 11.09775444-5.13468453 20.7682783-13.3864637 27.34536094-23.33413205 6.87364274-10.39618384 10.79398431-23.86757395 10.39666415-35.72535203z" fill="#fff"/><circle cx="202.78731" cy="504.71835" r="64.645973" fill="none" stroke="#26282c" stroke-width="4.5"/></g><path d="M271.76994 277.34025c-.048-12.08259-.11381-22.13192-.14624-22.33184l-.059-.36348 5.9298-.0388 5.92979-.0388 1.54223.42852c2.68442.74589 5.07652 1.82375 7.18184 3.23612 4.70182 3.15428 7.62191 7.61746 8.80391 13.4562.26938 1.3307.30695 1.90397.30178 4.60439-.006 3.34238-.12319 4.30136-.86686 7.11859-1.41156 5.34739-4.54638 10.33055-8.22763 13.07878-1.36364 1.01803-3.42335 2.0325-4.91323 2.41993-1.09248.28408-1.43638.29855-8.26453.34761l-7.12462.0512zm10.78269 16.73146c3.0774-.1183 3.5576-.23323 5.07656-1.21497 2.63929-1.70585 4.98282-5.55204 6.11239-10.03162.61901-2.45486.78534-4.11957.70629-7.06904-.0785-2.92941-.21865-3.80256-.97657-6.08483-1.50148-4.52128-4.41308-7.63744-8.80897-9.42787-.57941-.23598-1.27957-.3234-4.02072-.50194l-3.31913-.21617-.004 1.61124c-.008 3.07533.4288 32.45736.48714 32.75748.0685.35221.13917.35485 4.74727.17772z" fill="none"/><g fill="none" stroke="#26282c" stroke-width="1.5"><path d="M285.6080387 254.3661044c29.55442 6.88206 17.92457 46.31262.1341 45.05978"/><path d="M285.7421387 299.4258844h-11.93547l-.26821-44.92567 12.06958-.13411"/></g><path d="M285.8762387 260.1326944c17.79574 5.9556 10.06826 35.12228-.53641 33.66072m.53641-33.66072-6.30299-.40233.53642 34.33125 5.23016-.26821" fill="none" stroke="#26282c" stroke-width="1.5"/><path d="M274.5912428 282.43433063c0-8.88790968-.07926917-18.5847829-.17531292-21.5486189l-.17459854-5.38876868 5.54161847-.15710958c6.24345221-.1770327 7.29159908-.00582083 11.13655049 1.82022748 5.67414826 2.69464892 9.38101363 7.00378532 11.08379257 12.88459963.8693679 3.00249162.87574436 9.37016571.0127 12.64946442-2.0906581 7.94345302-7.0824195 14.01246545-12.77109339 15.52717855-.9854406.26241375-3.26173037.36740042-8.01462594.36967583l-6.63826345.003175zm14.6162446 11.4788684c2.73150538-1.3364104 5.45655493-5.0546264 6.7910868-9.2661051.96845435-3.05633433 1.2384881-4.87851973 1.23211164-8.31461052-.01058333-5.7522268-1.49767394-9.71483842-4.93217723-13.14352087-3.32504516-3.31938309-5.96796805-4.23862495-12.30767568-4.28074662l-1.4405504-.009525.16369771 3.8220385c.0900377 2.10211455.24153812 10.20389424.33665583 18.0039431l.17295812 14.18190462 4.2727562-.14480646c3.90625537-.13237104 4.39610494-.20513145 5.71113701-.84851874z" fill="#fff"/></g></svg>