<svg viewBox="0 0 150 150" xmlns="http://www.w3.org/2000/svg"><defs><clipPath clipPathUnits="userSpaceOnUse" id="a"><path d="M439 387v240H106l-42-42V387z" fill="none" stroke="#000" stroke-width=".3"/></clipPath><clipPath clipPathUnits="userSpaceOnUse" id="b"><path d="M439 387v240H106l-42-42V387z" fill="none" stroke="#000" stroke-width=".3"/></clipPath></defs><g transform="scale(.3)"><path d="M250 250 0 500h500Z" fill="#4aa41d"/><path d="m250 250 250 250V0Z" fill="#d3d335"/><path d="M0 0v500l250-250Z" fill="#fb4b4b"/><path d="m0 0 250 250L500 0Z" fill="#4985e7"/><circle cx="250" cy="52" r="18" fill="#d2d235" stroke="#29292f" stroke-width="1.8"/><circle cx="179" cy="52" r="18" fill="#fa4a4b" stroke="#29292f" stroke-width="1.8"/><circle cx="321" cy="52" r="18" fill="#48a11c" stroke="#29292f" stroke-width="1.8"/><g transform="translate(7 -385)" fill="#26282c"><path d="M140 790h142v24H140z"/><circle cx="139.3" cy="801.8" r="11.8"/><circle cx="282" cy="801.8" r="11.8"/></g><circle cx="181.9" cy="415" r="23.4" fill="#474a52" stroke="#26282c" stroke-width="3.3"/><path d="M338 386v25h-24v15h24v25h16v-25h24v-15h-24v-25z" fill="#474a52" stroke="#26282c" stroke-width="3.5"/><path d="M64 387v240h48l-48-49 48 49h327V387Z" clip-path="url(#a)" transform="translate(0 -263)" fill="#fff"/><path d="M64 387v240h48l-48-49 48 49h327V387Z" clip-path="url(#b)" transform="matrix(.77333 0 0 .7452 57 -134)" fill="#474a52"/><path d="m64 322 42 41 333 1V124H64v198" fill="none" stroke="#26282c" stroke-width="5"/><path d="M107 154v148l32 31h258V154H107" fill="none" stroke="#26282c" stroke-width="4.8"/><path d="m354 276-13 23h9l9-18 9 18h7l-13-22 12-23h-7l-9 17-9-16h-7zm-44-22-1 45 29 1v-7h-22v-14h19v-6h-19v-13h22v-5Z" fill="#fff" stroke="#26282c" stroke-width="1.5"/><g transform="translate(-2 -263)"><path d="M202 442h-9l1 1 19 5c14 7 23 18 27 33v21c-3 13-9 23-18 30l-16 7 15-1c17-3 29-11 36-23l5-13v-16c0-3 0-4-2-7a65 65 0 0 0-58-37zm-24 4-4 2a81 81 0 0 0-18 13 64 64 0 0 0-18 51l1-2c5-19 15-33 29-39a42 42 0 0 1 20-4h11c10 3 17 7 24 14s11 14 11 22l1 3v-4l-1-20c-2-10-6-17-12-22-8-9-22-14-39-14zm13 28h-12c-7 2-13 4-18 8-12 8-18 22-19 42v5l1 4a65 65 0 0 0 63 38l-16-6c-9-5-15-10-20-17-9-12-11-29-5-44 6-17 19-28 35-29h3l-3-1h-9zm12 14c-8 0-16 6-18 14-1 6 0 12 5 17l8 5 10-1c13-4 17-20 7-29-3-4-8-6-12-6zm63 14-1 5-8 16a80 80 0 0 1-11 13c-9 8-21 11-33 10a51 51 0 0 1-34-16c-5-6-9-15-9-23v-2l-1 1v18c3 25 18 39 46 42h7l7-1a64 64 0 0 0 38-59z" fill="#fff"/><circle cx="202.8" cy="504.7" r="64.6" fill="none" stroke="#26282c" stroke-width="4.5"/></g><path d="M272 277v-22h13l7 3a20 20 0 0 1 9 18l-1 7c-1 6-4 11-8 13-1 2-3 3-5 3h-15zm11 17 5-1c2-2 5-6 6-10v-7l-1-6c-1-5-4-8-8-10h-8v1l1 33h5z" fill="none"/><path d="M286 254c29 7 18 47 0 45m0 0h-12v-44l12-1" fill="none" stroke="#26282c" stroke-width="1.5"/><g fill="none" stroke="#26282c" stroke-width="1.5"><path d="M286 260c18 6 10 35-1 34"/><path d="M286 260h-6v34h5"/></g><path d="m275 282-1-21v-6h6c6 0 7 0 11 2 6 3 9 7 11 13v13c-2 8-7 14-13 15l-8 1h-6zm14 12c3-1 6-5 7-9l1-9c0-5-1-9-5-13-3-3-6-4-12-4h-1v36h4l6-1z" fill="#fff"/></g></svg>